M48
; DRILL file KiCad 10.0.5 date 2026-08-03T15:50:53
; FORMAT={-:-/ absolute / metric / decimal}
; #@! TF.CreationDate,2026-08-03T15:50:53-04:00
; #@! TF.GenerationSoftware,Kicad,Pcbnew,10.0.5
; #@! TF.FileFunction,Plated,1,2,PTH
FMAT,2
METRIC
; #@! TA.AperFunction,Plated,PTH,ComponentDrill
T1C0.800
; #@! TA.AperFunction,Plated,PTH,ComponentDrill
T2C1.000
; #@! TA.AperFunction,Plated,PTH,ComponentDrill
T3C1.500
; #@! TA.AperFunction,Plated,PTH,ComponentDrill
T4C1.524
; #@! TA.AperFunction,Plated,PTH,ComponentDrill
T5C3.048
%
G90
G05
T1
X3.525Y-130.39
X3.525Y-138.01
X3.537Y-54.19
X3.537Y-61.81
X13.225Y-73.24
X13.225Y-80.86
X17.812Y-92.29
X17.812Y-99.91
X22.575Y-111.34
X22.575Y-118.96
X22.575Y-130.39
X22.575Y-138.01
X22.587Y-54.19
X22.587Y-61.81
X32.275Y-73.24
X32.275Y-80.86
X36.862Y-92.29
X36.862Y-99.91
X41.625Y-111.34
X41.625Y-118.96
X41.625Y-130.39
X41.625Y-138.01
X41.637Y-54.19
X41.637Y-61.81
X51.325Y-73.24
X51.325Y-80.86
X55.912Y-92.29
X55.912Y-99.91
X60.675Y-111.34
X60.675Y-118.96
X60.675Y-130.39
X60.675Y-138.01
X60.688Y-54.19
X60.688Y-61.81
X70.375Y-73.24
X70.375Y-80.86
X74.962Y-92.29
X74.962Y-99.91
X79.725Y-111.34
X79.725Y-118.96
X79.737Y-54.19
X79.737Y-61.81
X89.425Y-73.24
X89.425Y-80.86
X94.013Y-92.29
X94.013Y-99.91
X98.775Y-111.34
X98.775Y-118.96
X98.787Y-54.19
X98.787Y-61.81
X108.475Y-73.24
X108.475Y-80.86
X113.062Y-92.29
X113.062Y-99.91
X117.825Y-111.34
X117.825Y-118.96
X117.837Y-54.19
X117.837Y-61.81
X127.525Y-73.24
X127.525Y-80.86
X129.731Y-130.39
X129.731Y-138.01
X132.112Y-92.29
X132.112Y-99.91
X136.875Y-111.34
X136.875Y-118.96
X136.887Y-54.19
X136.887Y-61.81
X146.575Y-73.24
X146.575Y-80.86
X151.162Y-92.29
X151.162Y-99.91
X155.925Y-111.34
X155.925Y-118.96
X155.938Y-54.19
X155.938Y-61.81
X165.625Y-73.24
X165.625Y-80.86
X170.213Y-92.29
X170.213Y-99.91
X174.975Y-111.34
X174.975Y-118.96
X174.987Y-54.19
X174.987Y-61.81
X184.675Y-73.24
X184.675Y-80.86
X189.262Y-92.29
X189.262Y-99.91
X194.025Y-111.34
X194.025Y-118.96
X194.037Y-54.19
X194.037Y-61.81
X198.787Y-130.39
X198.787Y-138.01
X203.725Y-73.24
X203.725Y-80.86
X208.312Y-92.29
X208.312Y-99.91
X213.075Y-111.34
X213.075Y-118.96
X213.087Y-54.19
X213.087Y-61.81
X217.837Y-130.39
X217.837Y-138.01
X222.775Y-73.24
X222.775Y-80.86
X227.362Y-92.29
X227.362Y-99.91
X232.137Y-54.19
X232.137Y-61.81
X241.825Y-73.24
X241.825Y-80.86
X246.412Y-130.39
X246.412Y-138.01
X248.794Y-111.34
X248.794Y-118.96
X260.875Y-73.24
X260.875Y-80.86
X265.462Y-130.39
X265.462Y-138.01
X284.512Y-54.19
X284.512Y-61.81
X284.512Y-73.24
X284.512Y-80.86
X284.512Y-92.29
X284.512Y-99.91
X284.512Y-111.34
X284.512Y-118.96
X284.512Y-130.39
X284.512Y-138.01
X303.562Y-54.19
X303.562Y-61.81
X303.562Y-73.24
X303.562Y-80.86
X303.562Y-92.29
X303.562Y-99.91
X303.562Y-111.34
X303.562Y-118.96
X303.562Y-130.39
X303.562Y-138.01
T2
X0.787Y-31.85
X0.787Y-34.35
X0.787Y-36.85
X15.287Y-31.85
X15.287Y-36.85
X259.852Y-27.31
X259.852Y-45.09
X262.392Y-27.31
X262.392Y-45.09
X264.933Y-27.31
X264.933Y-45.09
X267.472Y-27.31
X267.472Y-45.09
X270.012Y-27.31
X270.012Y-45.09
X272.553Y-27.31
X272.553Y-45.09
X275.092Y-27.31
X275.092Y-45.09
X277.632Y-27.31
X277.632Y-45.09
X280.173Y-27.31
X280.173Y-45.09
X282.712Y-27.31
X282.712Y-45.09
X285.252Y-27.31
X285.252Y-45.09
X287.792Y-27.31
X287.792Y-45.09
X290.332Y-27.31
X290.332Y-45.09
X292.873Y-27.31
X292.873Y-45.09
X295.412Y-27.31
X295.412Y-45.09
X297.952Y-27.31
X297.952Y-45.09
X300.493Y-27.31
X300.493Y-45.09
X303.032Y-27.31
X303.032Y-45.09
X305.572Y-27.31
X305.572Y-45.09
X308.113Y-27.31
X308.113Y-45.09
T4
X-9.81Y-56.46
X-9.81Y-132.66
X-5.047Y-75.51
X-3.46Y-53.92
X-3.46Y-130.12
X-2.666Y-94.56
X-0.285Y-113.61
X1.302Y-72.97
X3.684Y-92.02
X6.065Y-111.07
X9.24Y-56.46
X9.24Y-132.66
X15.59Y-53.92
X15.59Y-130.12
X18.94Y-75.51
X23.527Y-94.56
X25.29Y-72.97
X28.29Y-56.46
X28.29Y-113.61
X28.29Y-132.66
X29.877Y-92.02
X34.64Y-53.92
X34.64Y-111.07
X34.64Y-130.12
X37.815Y-75.51
X42.578Y-94.56
X44.165Y-72.97
X47.34Y-56.46
X47.34Y-113.61
X47.34Y-132.66
X48.927Y-92.02
X53.69Y-53.92
X53.69Y-111.07
X53.69Y-130.12
X56.865Y-75.51
X61.627Y-94.56
X63.215Y-72.97
X66.39Y-56.46
X66.39Y-113.61
X67.977Y-92.02
X72.74Y-53.92
X72.74Y-111.07
X75.915Y-75.51
X80.677Y-94.56
X82.265Y-72.97
X85.44Y-56.46
X85.44Y-113.61
X87.027Y-92.02
X91.79Y-53.92
X91.79Y-111.07
X94.965Y-75.51
X99.727Y-94.56
X101.315Y-72.97
X104.49Y-56.46
X104.49Y-113.61
X106.078Y-92.02
X110.84Y-53.92
X110.84Y-111.07
X114.015Y-75.51
X116.396Y-132.66
X118.777Y-94.56
X120.365Y-72.97
X122.746Y-130.12
X123.54Y-56.46
X123.54Y-113.61
X125.127Y-92.02
X129.89Y-53.92
X129.89Y-111.07
X133.065Y-75.51
X137.827Y-94.56
X139.415Y-72.97
X142.59Y-56.46
X142.59Y-113.61
X144.177Y-92.02
X148.94Y-53.92
X148.94Y-111.07
X152.115Y-75.51
X156.877Y-94.56
X158.465Y-72.97
X161.64Y-56.46
X161.64Y-113.61
X163.227Y-92.02
X167.99Y-53.92
X167.99Y-111.07
X171.165Y-75.51
X175.927Y-94.56
X177.515Y-72.97
X180.69Y-56.46
X180.69Y-113.61
X182.278Y-92.02
X185.452Y-132.66
X187.04Y-53.92
X187.04Y-111.07
X190.215Y-75.51
X191.802Y-130.12
X194.977Y-94.56
X196.565Y-72.97
X199.74Y-56.46
X199.74Y-113.61
X201.327Y-92.02
X204.502Y-132.66
X206.09Y-53.92
X206.09Y-111.07
X209.265Y-75.51
X210.852Y-130.12
X214.028Y-94.56
X215.615Y-72.97
X218.79Y-56.46
X220.377Y-92.02
X225.14Y-53.92
X228.315Y-75.51
X228.315Y-132.66
X234.665Y-72.97
X234.665Y-130.12
X235.459Y-113.61
X241.809Y-111.07
X247.365Y-75.51
X252.127Y-94.56
X252.127Y-132.66
X253.715Y-72.97
X254.509Y-56.46
X258.477Y-92.02
X258.477Y-130.12
X260.859Y-53.92
X268.846Y-75.51
X271.178Y-113.61
X271.178Y-132.66
X275.196Y-72.97
X277.527Y-111.07
X277.527Y-130.12
X290.227Y-56.46
X290.227Y-75.51
X290.227Y-94.56
X290.227Y-113.61
X290.227Y-132.66
X296.577Y-53.92
X296.577Y-72.97
X296.577Y-92.02
X296.577Y-111.07
X296.577Y-130.12
T5
X-8.381Y-109.165
X15.431Y-109.165
X70.2Y-128.215
X170.213Y-128.215
X227.362Y-109.165
X236.887Y-90.115
X246.412Y-52.015
X251.175Y-109.165
X270.225Y-52.015
X274.988Y-90.115
T3
G00X7.637Y-28.75
M15
G01X8.938Y-28.75
M16
G05
G00X7.637Y-39.95
M15
G01X8.938Y-39.95
M16
G05
M30
