M48
; DRILL file KiCad 10.0.5 date 2026-08-03T15:50:53
; FORMAT={-:-/ absolute / metric / decimal}
; #@! TF.CreationDate,2026-08-03T15:50:53-04:00
; #@! TF.GenerationSoftware,Kicad,Pcbnew,10.0.5
; #@! TF.FileFunction,NonPlated,1,2,NPTH
FMAT,2
METRIC
; #@! TA.AperFunction,NonPlated,NPTH,ComponentDrill
T1C1.750
; #@! TA.AperFunction,NonPlated,NPTH,ComponentDrill
T2C3.988
%
G90
G05
T1
X-11.08Y-59.0
X-11.08Y-135.2
X-6.317Y-78.05
X-3.936Y-97.1
X-1.555Y-116.15
X-0.92Y-59.0
X-0.92Y-135.2
X3.842Y-78.05
X6.224Y-97.1
X7.97Y-59.0
X7.97Y-135.2
X8.605Y-116.15
X17.67Y-78.05
X18.13Y-59.0
X18.13Y-135.2
X22.258Y-97.1
X27.02Y-59.0
X27.02Y-116.15
X27.02Y-135.2
X27.83Y-78.05
X32.417Y-97.1
X36.545Y-78.05
X37.18Y-59.0
X37.18Y-116.15
X37.18Y-135.2
X41.307Y-97.1
X46.07Y-59.0
X46.07Y-116.15
X46.07Y-135.2
X46.705Y-78.05
X51.468Y-97.1
X55.595Y-78.05
X56.23Y-59.0
X56.23Y-116.15
X56.23Y-135.2
X60.357Y-97.1
X65.12Y-59.0
X65.12Y-116.15
X65.755Y-78.05
X70.517Y-97.1
X74.645Y-78.05
X75.28Y-59.0
X75.28Y-116.15
X79.407Y-97.1
X84.17Y-59.0
X84.17Y-116.15
X84.805Y-78.05
X89.567Y-97.1
X93.695Y-78.05
X94.33Y-59.0
X94.33Y-116.15
X98.457Y-97.1
X103.22Y-59.0
X103.22Y-116.15
X103.855Y-78.05
X108.617Y-97.1
X112.745Y-78.05
X113.38Y-59.0
X113.38Y-116.15
X115.126Y-135.2
X117.507Y-97.1
X122.27Y-59.0
X122.27Y-116.15
X122.905Y-78.05
X125.286Y-135.2
X127.667Y-97.1
X131.795Y-78.05
X132.43Y-59.0
X132.43Y-116.15
X136.558Y-97.1
X141.32Y-59.0
X141.32Y-116.15
X141.955Y-78.05
X146.718Y-97.1
X150.845Y-78.05
X151.48Y-59.0
X151.48Y-116.15
X155.607Y-97.1
X160.37Y-59.0
X160.37Y-116.15
X161.005Y-78.05
X165.767Y-97.1
X169.895Y-78.05
X170.53Y-59.0
X170.53Y-116.15
X174.657Y-97.1
X179.42Y-59.0
X179.42Y-116.15
X180.055Y-78.05
X184.183Y-135.2
X184.817Y-97.1
X188.945Y-78.05
X189.58Y-59.0
X189.58Y-116.15
X193.707Y-97.1
X194.343Y-135.2
X198.47Y-59.0
X198.47Y-116.15
X199.105Y-78.05
X203.232Y-135.2
X203.867Y-97.1
X207.995Y-78.05
X208.63Y-59.0
X208.63Y-116.15
X212.757Y-97.1
X213.392Y-135.2
X217.52Y-59.0
X218.155Y-78.05
X222.917Y-97.1
X227.045Y-78.05
X227.045Y-135.2
X227.68Y-59.0
X234.189Y-116.15
X237.205Y-78.05
X237.205Y-135.2
X244.349Y-116.15
X246.095Y-78.05
X250.857Y-97.1
X250.857Y-135.2
X253.239Y-59.0
X256.255Y-78.05
X261.017Y-97.1
X261.017Y-135.2
X263.399Y-59.0
X267.576Y-78.05
X269.907Y-116.15
X269.907Y-135.2
X277.736Y-78.05
X280.067Y-116.15
X280.067Y-135.2
X288.957Y-59.0
X288.957Y-78.05
X288.957Y-97.1
X288.957Y-116.15
X288.957Y-135.2
X299.118Y-59.0
X299.118Y-78.05
X299.118Y-97.1
X299.118Y-116.15
X299.118Y-135.2
T2
X-8.381Y-124.405
X-6.0Y-59.0
X-6.0Y-135.2
X-1.238Y-78.05
X1.144Y-97.1
X3.525Y-116.15
X13.05Y-59.0
X13.05Y-135.2
X15.431Y-124.405
X22.75Y-78.05
X27.337Y-97.1
X32.1Y-59.0
X32.1Y-116.15
X32.1Y-135.2
X41.625Y-78.05
X46.387Y-97.1
X51.15Y-59.0
X51.15Y-116.15
X51.15Y-135.2
X60.675Y-78.05
X65.438Y-97.1
X70.2Y-59.0
X70.2Y-116.15
X70.2Y-143.455
X79.725Y-78.05
X84.487Y-97.1
X89.25Y-59.0
X89.25Y-116.15
X98.775Y-78.05
X103.537Y-97.1
X108.3Y-59.0
X108.3Y-116.15
X117.825Y-78.05
X120.206Y-135.2
X122.587Y-97.1
X127.35Y-59.0
X127.35Y-116.15
X136.875Y-78.05
X141.637Y-97.1
X146.4Y-59.0
X146.4Y-116.15
X155.925Y-78.05
X160.688Y-97.1
X165.45Y-59.0
X165.45Y-116.15
X170.213Y-143.455
X174.975Y-78.05
X179.737Y-97.1
X184.5Y-59.0
X184.5Y-116.15
X189.262Y-135.2
X194.025Y-78.05
X198.787Y-97.1
X203.55Y-59.0
X203.55Y-116.15
X208.312Y-135.2
X213.075Y-78.05
X217.837Y-97.1
X222.6Y-59.0
X227.362Y-124.405
X232.125Y-78.05
X232.125Y-135.2
X236.887Y-105.355
X239.269Y-116.15
X246.412Y-67.255
X251.175Y-78.05
X251.175Y-124.405
X255.938Y-97.1
X255.938Y-135.2
X258.319Y-59.0
X270.225Y-67.255
X272.656Y-78.05
X274.988Y-105.355
X274.988Y-116.15
X274.988Y-135.2
X294.037Y-59.0
X294.037Y-78.05
X294.037Y-97.1
X294.037Y-116.15
X294.037Y-135.2
M30
